<svg width="23" height="19" viewBox="0 0 23 19" fill="none" xmlns="http://www.w3.org/2000/svg">
<path fill-rule="evenodd" clip-rule="evenodd" d="M2.05308 7.7889L13.7167 2.7649C19.2709 0.454701 20.425 0.0534209 21.1772 0.0401809C21.3427 0.0372609 21.7126 0.0782604 21.9522 0.2727C22.1546 0.436861 22.2102 0.658701 22.2369 0.814301C22.2636 0.969901 22.2967 1.32458 22.2704 1.60166C21.9694 4.76406 20.667 12.4386 20.0044 15.9806C19.724 17.4794 19.1724 17.9819 18.6376 18.0311C17.4762 18.138 16.5942 17.2635 15.4693 16.5261L11.006 13.528C9.03133 12.2268 10.3114 11.5116 11.4368 10.3428C11.7312 10.0368 16.8486 5.38226 16.9476 4.96002C16.9596 4.90722 16.9714 4.71042 16.8545 4.60642C16.7376 4.50242 16.5649 4.53842 16.4404 4.5663C16.2639 4.60638 13.4518 6.46502 8.00432 10.1423C7.20612 10.6904 6.48312 10.9575 5.8354 10.9435C5.12128 10.9281 3.74764 10.5397 2.72648 10.2078C1.47396 9.80066 0.478483 9.58538 0.565203 8.89394C0.610323 8.53382 1.10628 8.16554 2.05304 7.78898L2.05308 7.7889Z" fill="white"/>
</svg>
