<svg width="23" height="23" viewBox="0 0 23 23" fill="none" xmlns="http://www.w3.org/2000/svg">
<path d="M16.8749 13.751C16.6249 13.626 15.3124 12.876 15.0624 12.8135C14.8124 12.6885 14.6249 12.6885 14.4374 12.9385C14.2499 13.1885 13.6874 13.8135 13.5624 13.9385C13.3749 14.126 13.2499 14.126 12.9999 14.001C12.7499 13.876 11.8749 13.5635 10.8749 12.5635C10.1249 11.8135 9.56238 10.9385 9.43738 10.626C9.31238 10.376 9.43738 10.1885 9.56238 10.0635C9.68738 9.93848 9.81238 9.75098 9.99988 9.62598C10.1874 9.50098 10.1874 9.37598 10.3124 9.18848C10.4374 9.00098 10.3749 8.87598 10.3124 8.68848C10.2499 8.50098 9.74988 7.18848 9.56238 6.62598C9.37488 6.06348 9.12488 6.18848 8.99988 6.12598C8.81238 6.12598 8.68738 6.06348 8.49988 6.06348C8.24988 6.06348 7.93738 6.18848 7.74988 6.37598C7.49988 6.62598 6.74988 7.25098 6.74988 8.56348C6.74988 9.87598 7.62488 11.251 7.74988 11.376C7.87488 11.5635 9.49988 14.4385 12.1874 15.626C14.8749 16.8135 14.8749 16.4385 15.3749 16.4385C15.8749 16.4385 16.9999 15.8135 17.2499 15.251C17.4999 14.626 17.4999 14.0635 17.4374 14.001C17.3124 14.001 17.1249 13.9385 16.8749 13.751ZM11.8749 20.1885C10.1249 20.1885 8.49988 19.6885 7.06238 18.751L3.68738 19.8135L4.81238 16.5635C3.74988 15.0635 3.12488 13.251 3.12488 11.376C3.12488 6.50098 7.06238 2.56348 11.9374 2.56348C16.8124 2.56348 20.6874 6.50098 20.6874 11.376C20.6874 16.251 16.7499 20.1885 11.8749 20.1885ZM11.8749 0.813477C6.06238 0.813477 1.31238 5.56348 1.31238 11.376C1.31238 13.3135 1.81238 15.1885 2.81238 16.8135L0.874878 22.501L6.74988 20.626C8.31238 21.501 10.0624 21.9385 11.8749 21.9385C17.6874 21.9385 22.4374 17.1885 22.4374 11.376C22.4374 5.56348 17.7499 0.813477 11.8749 0.813477Z" fill="white"/>
</svg>
